<?xml version="1.0" encoding="UTF-8"?>
<svg width="994px" height="400px" viewBox="0 0 994 400" version="1.1" xmlns="http://www.w3.org/2000/svg" xmlns:xlink="http://www.w3.org/1999/xlink">
    <title>NativeExtractor</title>
    <defs>
        <linearGradient x1="-5.68434189e-12%" y1="46.0414653%" x2="100%" y2="53.5868884%" id="linearGradient-1">
            <stop stop-color="#D8EFF9" offset="0%"></stop>
            <stop stop-color="#B0DAF1" offset="100%"></stop>
        </linearGradient>
        <linearGradient x1="118.853433%" y1="55.6064146%" x2="-18.4444735%" y2="47.0418434%" id="linearGradient-2">
            <stop stop-color="#B3DBF4" offset="0%"></stop>
            <stop stop-color="#F7FCFF" offset="100%"></stop>
        </linearGradient>
        <linearGradient x1="10.9941607%" y1="38.7489595%" x2="87.4880341%" y2="54.9098244%" id="linearGradient-3">
            <stop stop-color="#C24736" offset="0%"></stop>
            <stop stop-color="#B5372B" offset="22.6264784%"></stop>
            <stop stop-color="#AF2D23" offset="40.247058%"></stop>
            <stop stop-color="#99261D" offset="60.5306529%"></stop>
            <stop stop-color="#62110A" offset="100%"></stop>
        </linearGradient>
        <linearGradient x1="97.0516807%" y1="51.3766639%" x2="0.671807153%" y2="39.9916151%" id="linearGradient-4">
            <stop stop-color="#DA3D2C" offset="0%"></stop>
            <stop stop-color="#E04332" offset="13.0983337%"></stop>
            <stop stop-color="#D13F30" offset="21.6802321%"></stop>
            <stop stop-color="#E54736" offset="31.7321338%"></stop>
            <stop stop-color="#F75847" offset="100%"></stop>
            <stop stop-color="#F06B5C" offset="100%"></stop>
        </linearGradient>
        <linearGradient x1="87.7201674%" y1="50%" x2="6.4082631%" y2="41.6410691%" id="linearGradient-5">
            <stop stop-color="#D6B41D" offset="0%"></stop>
            <stop stop-color="#FAD63A" offset="100%"></stop>
        </linearGradient>
        <linearGradient x1="-5.68434189e-12%" y1="44.1597382%" x2="85.932412%" y2="52.7013739%" id="linearGradient-6">
            <stop stop-color="#77D2F1" offset="0%"></stop>
            <stop stop-color="#2689C0" offset="100%"></stop>
        </linearGradient>
        <linearGradient x1="7.45817674%" y1="13.3336218%" x2="94.2582745%" y2="89.6177489%" id="linearGradient-7">
            <stop stop-color="#FE6D5E" offset="0%"></stop>
            <stop stop-color="#DB402F" offset="32.2608198%"></stop>
            <stop stop-color="#CF3B2B" offset="100%"></stop>
        </linearGradient>
        <linearGradient x1="9.9852555%" y1="25.3173876%" x2="39.5417909%" y2="72.2460719%" id="linearGradient-8">
            <stop stop-color="#6EC7E9" offset="0%"></stop>
            <stop stop-color="#3CA0D0" offset="100%"></stop>
        </linearGradient>
        <linearGradient x1="13.5887966%" y1="33.4347492%" x2="41.3278764%" y2="91.5324705%" id="linearGradient-9">
            <stop stop-color="#F6D955" offset="0%"></stop>
            <stop stop-color="#DEBA1A" offset="100%"></stop>
        </linearGradient>
        <linearGradient x1="7.15440481%" y1="29.7625691%" x2="95.2487583%" y2="70.8266381%" id="linearGradient-10">
            <stop stop-color="#FE6D5E" offset="0%"></stop>
            <stop stop-color="#DB402F" offset="27.4890324%"></stop>
            <stop stop-color="#CF3B2B" offset="100%"></stop>
        </linearGradient>
        <linearGradient x1="93.5967656%" y1="8.54646638%" x2="10.3568195%" y2="95.7877073%" id="linearGradient-11">
            <stop stop-color="#E7F4FC" offset="0%"></stop>
            <stop stop-color="#E7F4FC" offset="47.8841047%"></stop>
            <stop stop-color="#BAD9EC" offset="100%"></stop>
        </linearGradient>
    </defs>
    <g id="Logo" stroke="none" stroke-width="1" fill="none" fill-rule="evenodd">
        <g id="3a" transform="translate(-494.000000, -496.000000)">
            <g id="NativeExtractor" transform="translate(494.000000, 496.000000)">
                <rect id="Rectangle" fill-opacity="0" fill="#D8D8D8" x="0" y="0" width="994" height="400"></rect>
                <g id="logotype" transform="translate(236.808873, 160.805141)" fill="#6C758C" fill-rule="nonzero">
                    <path d="M13.86,76.23 L13.86,16.8 L14.91,16.8 L32.655,76.23 L56.49,76.23 L56.49,2.73 L42.63,2.73 L42.63,62.16 L41.58,62.16 L23.835,2.73 L0,2.73 L0,76.23 L13.86,76.23 Z M85.05,77.7 C94.71,77.7 98.175,72.45 99.12,70.14 L100.59,70.14 L100.59,76.23 L113.19,76.23 L113.19,42.735 C113.19,29.715 104.58,22.68 90.93,22.68 C77.385,22.68 70.35,29.505 67.83,37.38 L80.01,41.475 C80.955,36.75 84.105,33.18 90.72,33.18 C97.44,33.18 100.38,36.96 100.38,41.79 L100.38,44.73 L86.1,44.73 C74.34,44.73 65.94,50.295 65.94,61.005 C65.94,71.715 74.34,77.7 85.05,77.7 Z M87.78,66.99 C82.11,66.99 79.17,64.365 79.17,60.69 C79.17,57.12 82.11,54.6 87.045,54.6 L100.38,54.6 L100.38,55.44 C100.38,62.37 95.13,66.99 87.78,66.99 Z M158.13,76.23 L158.13,65.52 L148.05,65.52 C146.16,65.52 145.11,64.47 145.11,62.37 L145.11,34.86 L159.39,34.86 L159.39,24.15 L145.11,24.15 L145.11,7.98 L131.88,7.98 L131.88,24.15 L118.86,24.15 L118.86,34.86 L131.88,34.86 L131.88,64.47 C131.88,71.61 136.5,76.23 143.43,76.23 L158.13,76.23 Z M174.67,13 C178.321685,13 181.17,10.3546512 181.17,6.5 C181.17,2.64534884 178.321685,0 174.67,0 C171.018315,0 168.17,2.64534884 168.17,6.5 C168.17,10.3546512 171.018315,13 174.67,13 Z M181.44,76.23 L181.44,24.15 L168.21,24.15 L168.21,76.23 L181.44,76.23 Z M225.015,76.23 L242.97,24.15 L228.69,24.15 L215.775,65.1 L214.725,65.1 L201.81,24.15 L187.53,24.15 L205.485,76.23 L225.015,76.23 Z M272.265,77.7 C286.545,77.7 292.74,69.615 295.68,64.05 L284.865,58.38 C283.08,62.37 280.035,66.36 272.685,66.36 C265.335,66.36 259.77,61.215 259.455,54.075 L297.36,54.075 L297.36,49.56 C297.36,33.6 287.385,22.68 272.055,22.68 C256.725,22.68 245.91,33.6 245.91,50.19 C245.91,66.78 256.725,77.7 272.265,77.7 Z M283.92,44.205 L259.56,44.205 C260.4,38.43 264.81,34.02 271.95,34.02 C278.775,34.02 283.29,38.22 283.92,44.205 Z M354.69,76.23 L354.69,63.63 L319.62,63.63 L319.62,45.465 L351.12,45.465 L351.12,32.865 L319.62,32.865 L319.62,15.33 L354.06,15.33 L354.06,2.73 L305.76,2.73 L305.76,76.23 L354.69,76.23 Z M374.745,76.23 L386.925,58.065 L387.975,58.065 L400.155,76.23 L415.8,76.23 L397.32,49.98 L415.59,24.15 L400.26,24.15 L387.975,42.105 L386.925,42.105 L374.64,24.15 L359.31,24.15 L377.58,49.98 L359.1,76.23 L374.745,76.23 Z M456.96,76.23 L456.96,65.52 L446.88,65.52 C444.99,65.52 443.94,64.47 443.94,62.37 L443.94,34.86 L458.22,34.86 L458.22,24.15 L443.94,24.15 L443.94,7.98 L430.71,7.98 L430.71,24.15 L417.69,24.15 L417.69,34.86 L430.71,34.86 L430.71,64.47 C430.71,71.61 435.33,76.23 442.26,76.23 L456.96,76.23 Z M480.27,76.23 L480.27,45.99 C480.27,38.64 485.1,35.07 491.82,35.07 L499.59,35.07 L499.59,23.94 L494.13,23.94 C487.515,23.94 483.105,25.935 481.11,31.5 L480.06,31.5 L480.06,24.15 L467.04,24.15 L467.04,76.23 L480.27,76.23 Z M522.9,77.7 C532.56,77.7 536.025,72.45 536.97,70.14 L538.44,70.14 L538.44,76.23 L551.04,76.23 L551.04,42.735 C551.04,29.715 542.43,22.68 528.78,22.68 C515.235,22.68 508.2,29.505 505.68,37.38 L517.86,41.475 C518.805,36.75 521.955,33.18 528.57,33.18 C535.29,33.18 538.23,36.96 538.23,41.79 L538.23,44.73 L523.95,44.73 C512.19,44.73 503.79,50.295 503.79,61.005 C503.79,71.715 512.19,77.7 522.9,77.7 Z M525.63,66.99 C519.96,66.99 517.02,64.365 517.02,60.69 C517.02,57.12 519.96,54.6 524.895,54.6 L538.23,54.6 L538.23,55.44 C538.23,62.37 532.98,66.99 525.63,66.99 Z M586.11,77.7 C600.705,77.7 609.21,69.195 612.15,57.75 L599.34,54.705 C598.185,61.425 594.3,66.15 586.32,66.15 C578.34,66.15 572.25,60.27 572.25,50.19 C572.25,40.11 578.34,34.23 586.32,34.23 C594.3,34.23 598.185,39.27 598.92,45.57 L611.73,42.84 C609.42,31.185 600.6,22.68 586.11,22.68 C570.99,22.68 559.02,34.02 559.02,50.19 C559.02,66.36 570.99,77.7 586.11,77.7 Z M654.15,76.23 L654.15,65.52 L644.07,65.52 C642.18,65.52 641.13,64.47 641.13,62.37 L641.13,34.86 L655.41,34.86 L655.41,24.15 L641.13,24.15 L641.13,7.98 L627.9,7.98 L627.9,24.15 L614.88,24.15 L614.88,34.86 L627.9,34.86 L627.9,64.47 C627.9,71.61 632.52,76.23 639.45,76.23 L654.15,76.23 Z M688.38,77.7 C703.92,77.7 715.68,67.2 715.68,50.19 C715.68,33.18 703.92,22.68 688.38,22.68 C672.84,22.68 661.08,33.18 661.08,50.19 C661.08,67.2 672.84,77.7 688.38,77.7 Z M688.38,66.15 C680.19,66.15 674.31,60.27 674.31,50.19 C674.31,40.11 680.19,34.23 688.38,34.23 C696.57,34.23 702.45,40.11 702.45,50.19 C702.45,60.27 696.57,66.15 688.38,66.15 Z M737.52,76.23 L737.52,45.99 C737.52,38.64 742.35,35.07 749.07,35.07 L756.84,35.07 L756.84,23.94 L751.38,23.94 C744.765,23.94 740.355,25.935 738.36,31.5 L737.31,31.5 L737.31,24.15 L724.29,24.15 L724.29,76.23 L737.52,76.23 Z" id="NativeExtractor"></path>
                </g>
                <g id="logomark" transform="translate(110.876846, 171.999360) rotate(26.000000) translate(-110.876846, -171.999360) translate(38.746411, 66.999360)">
                    <path d="M95.5240893,34.3411765 L95.5252272,69.9711769 C123.878836,79.6632141 144.26087,106.482952 144.26087,138.051183 C144.26087,177.787417 111.966974,210 72.1304348,210 C32.2938957,210 3.32163282e-12,177.787417 3.32163282e-12,138.051183 C3.32163282e-12,105.526014 21.6364568,78.0415862 51.3357491,69.1373437 L51.3360752,34.3411765 L95.5240893,34.3411765 Z" id="shape" fill="#E6F4FB" opacity="0.9"></path>
                    <path d="M51.3360752,34.3411765 L95.5242494,34.3411765 C95.5242494,40.4469373 95.5242494,44.1354517 95.5242494,45.4067195 C92.0786415,49.0492552 84.7130333,50.6099944 72.8943185,48.2475352 C61.4859228,45.68495 53.1297519,44.1733302 51.3360752,42.521987 C51.3360752,40.7040288 51.3360752,37.977092 51.3360752,34.3411765 Z" id="s" fill="url(#linearGradient-1)" opacity="0.186705124"></path>
                    <path d="M73.3676635,14.3294118 C77.7663324,14.3294118 81.9479439,14.7914734 85.7268633,15.6232996 L103.927213,15.6225282 L103.927213,29.8468085 C103.574235,38.0891163 90.0278535,44.7176471 73.3676635,44.7176471 C56.7074735,44.7176471 43.1610918,38.0891163 42.8149008,29.8469743 L42.808114,29.8468085 L42.808114,15.6225282 L61.0084637,15.6232996 C64.7873831,14.7914734 68.9689946,14.3294118 73.3676635,14.3294118 Z" id="ci" fill="url(#linearGradient-2)"></path>
                    <ellipse id="t" fill="#F3FBFF" cx="73.3676635" cy="15.1941176" rx="30.5595496" ry="15.1941176"></ellipse>
                    <ellipse id="in" fill="#B8DAF0" cx="73.4913864" cy="14.5764706" rx="18.8058767" ry="9.38823529"></ellipse>
                    <path d="M76.436183,23.7920528 C76.8312592,23.7521585 77.8878132,23.6405816 79.605845,23.4573218 C80.5393752,23.2971746 81.4397012,23.1013768 82.3002991,22.873185 C88.2473525,21.2962948 92.297263,18.1724897 92.297263,14.5764706 C92.297263,10.1273303 85.7219305,6.38375893 77.4001929,5.41571559 C76.6799196,17.6743836 76.3585829,23.7998293 76.436183,23.7920528 Z" id="s" fill="#B5D1E3" opacity="0.5"></path>
                    <g id="con" transform="translate(12.867179, 79.305882)">
                        <path d="M118.565148,68.7734898 C119.008018,65.8378567 120.011187,62.9707309 120.011187,59.9117647 C120.011187,55.8570579 118.834237,51.7581329 118.065421,47.9294118 C108.985182,25.5839428 100.229237,50.8440382 60.341043,26.8793323 C38.9376219,12.6300477 11.9279942,22.368865 3.79086734,40.0516352 C1.56109693,46.3216832 0.0223108701,52.8780408 0.0223108701,59.9117647 C38.6133276,81.2856916 81.2951582,89.2435802 118.565148,68.7734898 Z" id="red-dak" fill="url(#linearGradient-3)"></path>
                        <path d="M117.47783,77.1926779 C119.125657,71.7209568 120.011187,65.9196315 120.011187,59.9117647 C117.092538,11.3346582 90.8755225,49.8940891 60.9896315,53.1109698 C36.1243171,53.2333955 11.0483157,17.4877583 2.51593432,42.7633473 C0.893609968,48.196192 0.0223108699,53.9523672 0.0223108699,59.9117647 C-1.27486616,105.250397 54.179452,107.193482 117.47783,77.1926779 Z" id="red" fill="url(#linearGradient-4)"></path>
                        <path d="M60.0167487,119.823529 C89.5472558,119.823529 114.094547,98.5172444 119.084572,70.4586397 C118.041566,51.5080014 100.877825,55.0540541 87.2574664,63.1502385 C75.9071674,70.5987281 73.6371076,81.2856916 53.8551578,81.9333863 C39.9105047,81.609539 35.6801302,77.6957513 27.5873228,73.5133545 C17.5600808,68.3312338 3.32048047,65.1646439 2.58528697,77.2907247 C10.0440161,101.904088 32.9348399,119.823529 60.0167487,119.823529 Z" id="green" fill="url(#linearGradient-5)"></path>
                        <path d="M60.0167487,119.823529 C81.0414722,119.823529 99.5402237,109.023461 110.2534,92.6757448 C85.6359951,98.7734499 79.7986985,113.670429 56.4495118,102.983466 C38.2890334,95.2111288 41.8562702,90.6772655 29.8573827,86.791097 C17.2099066,83.2287758 8.77825585,90.0295707 11.0623128,94.5536635 C21.9328961,109.845464 39.8079634,119.823529 60.0167487,119.823529 Z" id="blue" fill="url(#linearGradient-6)"></path>
                    </g>
                    <ellipse id="r" fill="url(#linearGradient-7)" cx="63.7041728" cy="9.25171426" rx="5.19636065" ry="5.18823529"></ellipse>
                    <ellipse id="b" fill="url(#linearGradient-8)" opacity="0.9" cx="87.0788167" cy="76.1683346" rx="6.40131385" ry="6.39130435"></ellipse>
                    <ellipse id="y" fill="url(#linearGradient-9)" opacity="0.9" cx="70.7262727" cy="61.3554183" rx="4.57236703" ry="4.56521739"></ellipse>
                    <ellipse id="r" fill="url(#linearGradient-10)" opacity="0.9" cx="95.966896" cy="101.050587" rx="9.14473407" ry="9.13043478"></ellipse>
                    <path d="M44.0844475,192.475732 C29.1735314,179.837569 26.5803286,167.199406 26.5803286,141.274969 C28.2010804,85.5374289 51.2157552,91.3704272 47.9742517,75.815765 C46.0293496,73.2233212 42.7878461,71.9270994 35.6559293,75.9073763 C14.3258457,88.3917447 0,111.540579 0,138.034414 C0,168.672579 19.1582622,194.837402 46.15182,205.209231 C54.1634773,208.287578 52.836507,198.632786 44.0844475,192.475732 Z" id="ll" fill="#ECF7FD" opacity="0.13"></path>
                    <path d="M72.1829889,210 C111.990503,210 144.26087,177.80885 144.26087,138.099055 C144.26087,109.887232 127.972751,85.4703635 104.265648,73.6958113 C95.2349237,70.7324041 92.9621977,74.6189417 92.3128474,77.5338448 C90.0401215,95.9948982 111.468681,93.0799951 114.390757,139.07069 C114.390757,156.557124 105.415941,177.99062 91.0141469,190.243434 C78.0271459,200.607534 64.7154607,205.465706 72.1829889,210 Z" id="rl" fill="#ECF7FD" opacity="0.26"></path>
                    <path d="M72.1829889,210 C111.990503,210 144.26087,177.80885 144.26087,138.099055 C144.26087,137.318103 144.248388,136.540059 144.223614,135.76511 L132.658572,136.444674 C132.731888,137.240498 132.793826,138.051777 132.843934,138.878919 C132.481518,175.626424 104.559691,191.276517 95.1324205,194.85865 C88.3671902,197.650346 81.2117751,198.60064 78.8681945,198.851971 C78.6841084,198.975093 78.5018961,199.097134 78.3216584,199.21812 C71.3147122,203.921598 67.2921316,207.030264 72.1829889,210 Z" id="bs" fill="url(#linearGradient-11)" opacity="0.250885719"></path>
                </g>
            </g>
        </g>
    </g>
</svg>